{
  "accessors": [
    {
      "bufferView": 2,
      "componentType": 5126,
      "count": 269,
      "max": [
        0.6906300187110901,
        1.515820026397705,
        0.0
      ],
      "min": [
        -0.7068399786949158,
        -1.3464900255203247,
        -0.034690000116825104
      ],
      "type": "VEC3"
    },
    {
      "bufferView": 2,
      "byteOffset": 3228,
      "componentType": 5126,
      "count": 269,
      "max": [
        1.0,
        1.0,
        1.0
      ],
      "min": [
        -1.0,
        -1.0,
        -1.0
      ],
      "type": "VEC3"
    },
    {
      "bufferView": 1,
      "componentType": 5126,
      "count": 269,
      "max": [
        0.9707099795341492,
        0.9351599812507629
      ],
      "min": [
        0.03313000127673149,
        0.19309000670909882
      ],
      "type": "VEC2"
    },
    {
      "bufferView": 0,
      "componentType": 5125,
      "count": 795,
      "type": "SCALAR"
    }
  ],
  "asset": {
    "extras": {
      "author": "Emulius (https://sketchfab.com/Emulius)",
      "license": "CC-BY-4.0 (http://creativecommons.org/licenses/by/4.0/)",
      "source": "https://sketchfab.com/3d-models/bicycle-card-blue-5dd3e139a9e14dfa8cfa7eda5af0bea9",
      "title": "Bicycle Card Blue"
    },
    "generator": "Sketchfab-12.68.0",
    "version": "2.0"
  },
  "bufferViews": [
    {
      "buffer": 0,
      "byteLength": 3180,
      "name": "floatBufferViews",
      "target": 34963
    },
    {
      "buffer": 0,
      "byteLength": 2152,
      "byteOffset": 3180,
      "byteStride": 8,
      "name": "floatBufferViews",
      "target": 34962
    },
    {
      "buffer": 0,
      "byteLength": 6456,
      "byteOffset": 5332,
      "byteStride": 12,
      "name": "floatBufferViews",
      "target": 34962
    }
  ],
  "buffers": [
    {
      "byteLength": 11788,
      "uri": "scene.bin"
    }
  ],
  "images": [
    {
      "uri": "textures/card_diffuse.png"
    }
  ],
  "materials": [
    {
      "doubleSided": true,
      "name": "card",
      "pbrMetallicRoughness": {
        "baseColorFactor": [
          1.0,
          1.0,
          1.0,
          1.0
        ],
        "baseColorTexture": {
          "index": 0
        },
        "metallicFactor": 0.0,
        "roughnessFactor": 0.5139100609756098
      }
    }
  ],
  "meshes": [
    {
      "name": "Plane_0",
      "primitives": [
        {
          "attributes": {
            "NORMAL": 1,
            "POSITION": 0,
            "TEXCOORD_0": 2
          },
          "indices": 3,
          "material": 0,
          "mode": 4
        }
      ]
    }
  ],
  "nodes": [
    {
      "children": [
        1
      ],
      "matrix": [
        1.0,
        0.0,
        0.0,
        0.0,
        0.0,
        2.220446049250313e-16,
        -1.0,
        0.0,
        0.0,
        1.0,
        2.220446049250313e-16,
        0.0,
        0.0,
        0.0,
        0.0,
        1.0
      ],
      "name": "Sketchfab_model"
    },
    {
      "children": [
        2,
        4,
        6
      ],
      "name": "Root"
    },
    {
      "children": [
        3
      ],
      "matrix": [
        -1.80511,
        -0.0,
        0.0,
        0.0,
        0.0,
        -1.2218499999999999,
        0.0,
        0.0,
        0.0,
        0.0,
        1.0,
        0.0,
        0.0,
        0.0,
        0.0,
        1.0
      ],
      "name": "Plane"
    },
    {
      "mesh": 0,
      "name": "Plane_0"
    },
    {
      "children": [
        5
      ],
      "matrix": [
        1.0,
        0.0,
        0.0,
        0.0,
        0.0,
        1.0,
        0.0,
        0.0,
        0.0,
        0.0,
        1.0,
        0.0,
        9.107269999999998,
        0.0,
        3.71016,
        1.0
      ],
      "name": "Sun"
    },
    {
      "name": "Sun"
    },
    {
      "children": [
        7
      ],
      "matrix": [
        1.0,
        0.0,
        0.0,
        0.0,
        0.0,
        -1.0,
        -0.0,
        0.0,
        0.0,
        0.0,
        -1.0,
        0.0,
        9.107269999999998,
        0.0,
        -5.500929999999999,
        1.0
      ],
      "name": "Sun.001"
    },
    {
      "name": "Sun.001"
    }
  ],
  "samplers": [
    {
      "magFilter": 9729,
      "minFilter": 9987,
      "wrapS": 10497,
      "wrapT": 10497
    }
  ],
  "scene": 0,
  "scenes": [
    {
      "name": "Sketchfab_Scene",
      "nodes": [
        0
      ]
    }
  ],
  "textures": [
    {
      "sampler": 0,
      "source": 0
    }
  ]
}